<svg width="765" height="763" viewBox="0 0 765 763" fill="none" xmlns="http://www.w3.org/2000/svg">
<path d="M476.129 361.176C478.084 366.166 479.55 374.253 480.039 385.265L481.016 401.784L473.36 404.021C460.655 407.462 460.492 407.462 461.306 396.622C461.795 391.46 461.632 387.502 461.306 388.019C460.818 388.535 459.514 388.019 458.211 386.986C454.791 383.889 455.768 374.597 460.166 368.23C462.446 364.961 465.216 359.283 466.193 355.841C467.659 350.335 468.311 349.647 470.428 351.54C471.731 352.572 474.338 357.046 476.129 361.176Z" fill="#9DBFBE"/>
<path d="M416.348 265.16C418.955 266.709 423.841 268.946 427.099 269.978C438.502 273.936 441.596 286.497 434.918 301.639C430.683 310.931 424.167 317.126 413.742 320.911C405.435 324.008 402.503 323.32 394.847 316.265C386.702 308.694 384.422 302.844 383.119 286.841C381.49 266.881 381.816 265.849 389.634 263.096C393.381 261.891 398.756 258.45 401.362 255.524L406.412 250.19L409.018 256.385C410.484 259.654 413.742 263.612 416.348 265.16Z" fill="#E7C79A"/>
<path d="M429.217 320.051C427.588 325.557 430.194 335.193 434.429 339.839C439.316 344.829 438.176 347.582 428.239 352.916C415.697 359.627 401.037 355.669 394.358 343.969L391.1 338.462L396.313 335.709C399.245 334.161 401.851 331.235 402.34 328.654C402.991 325.729 403.643 325.041 404.62 326.589C406.901 330.547 414.882 328.826 422.212 322.804C422.556 322.518 422.884 322.244 423.2 321.981C427.671 318.254 429.393 316.818 429.787 317.152C430.034 317.361 429.759 318.265 429.313 319.735C429.281 319.838 429.249 319.943 429.217 320.051Z" fill="#E7C79A"/>
<path d="M447.623 282.539C450.881 285.981 449.741 292.347 445.18 297.338C441.434 301.295 440.619 301.467 440.13 299.058C439.805 297.51 440.782 293.896 442.085 290.971C445.343 284.432 445.343 282.884 442.248 285.637C440.945 286.841 439.805 287.013 439.805 286.153C439.805 284.432 443.225 280.475 444.691 280.475C445.18 280.475 446.483 281.335 447.623 282.539Z" fill="#E7C79A"/>
<path d="M491.441 574.715C503.495 576.78 512.454 583.835 514.083 592.61C514.572 596.224 514.246 596.74 511.965 595.879C509.685 595.019 509.522 595.363 510.988 597.084C512.291 598.633 512.454 599.837 510.988 601.214C509.685 602.934 506.427 602.59 496.979 600.353C493.821 599.638 488.787 598.52 483.08 597.252C483.075 597.251 483.07 597.249 483.065 597.248C476.415 595.771 468.855 594.091 462.284 592.61C449.904 589.857 439.805 587.276 439.805 586.76C439.805 586.244 446.646 583.318 454.953 580.221C463.098 577.124 471.08 573.854 472.383 572.822C473.686 571.962 476.618 571.618 478.898 572.134C481.179 572.822 486.717 573.854 491.441 574.715Z" fill="#E7C79A"/>
<path d="M482.156 428.627C482.156 441.016 481.505 452.373 480.527 454.094C477.921 459.428 462.446 470.44 440.619 482.657C422.212 492.981 418.303 494.53 410.484 494.702C405.598 494.702 399.408 495.562 396.802 496.251C390.775 498.144 392.404 494.53 398.593 491.949C400.874 491.089 402.34 489.884 401.851 489.196C401.362 488.68 397.779 489.884 393.87 491.777C385.073 496.423 383.607 494.874 390.937 488.508C394.032 485.754 395.498 483.518 394.358 483.518C393.218 483.518 390.123 485.41 387.354 487.819C378.721 495.562 376.277 491.949 384.259 483.345C389.797 477.495 396.802 476.807 409.344 480.937L417 483.345L431.986 470.096C457.234 447.555 460.003 445.49 464.564 444.458C470.102 443.253 470.591 440.5 465.216 440.5C461.632 440.5 461.143 439.468 459.352 428.111C458.048 420.024 457.886 414.862 458.863 413.141C459.677 411.764 464.075 409.527 468.473 408.495C469.558 408.23 470.558 407.976 471.478 407.742C476.102 406.565 478.738 405.894 480.235 406.986C482.22 408.434 482.204 412.979 482.168 423.551C482.168 423.554 482.168 423.558 482.168 423.561C482.162 425.116 482.156 426.802 482.156 428.627Z" fill="#E7C79A"/>
<path d="M352.658 408.495C359.5 410.388 361.291 411.764 363.572 416.926C366.341 423.121 366.341 423.293 361.129 439.123C356.405 453.749 347.771 469.408 345.654 467.171C345.165 466.655 342.396 460.46 339.464 453.233C335.718 444.286 334.414 439.123 335.392 437.231C336.206 435.682 337.346 429.832 337.835 424.153C337.927 423.345 338.015 422.571 338.099 421.83C339.15 412.534 339.62 408.371 341.703 407.025C343.392 405.933 346.143 406.694 351.123 408.072C351.613 408.207 352.124 408.349 352.658 408.495Z" fill="#E7C79A"/>
<path d="M374.323 487.991C376.603 488.508 377.906 489.884 377.58 491.605C376.929 495.907 389.96 500.725 396.639 498.832C399.245 497.971 404.132 497.283 407.227 497.455C410.973 497.455 404.946 499.864 389.309 504.338C387.823 504.75 386.363 505.155 384.941 505.55C373.888 508.617 365.126 511.049 364.549 511.049C363.083 511.049 358.359 501.757 358.359 498.832C358.359 496.939 372.042 497.799 380.35 500.208C382.63 500.897 383.119 500.553 381.978 499.348C381.164 498.316 375.3 496.939 368.947 496.251C357.708 495.218 353.473 492.809 353.473 487.475C353.473 485.238 362.595 485.41 374.323 487.991Z" fill="#797979"/>
<path d="M460.166 483.518C463.098 489.54 463.261 490.4 460.655 490.4C458.211 490.4 447.298 497.111 448.112 498.144C448.601 498.488 452.836 497.283 457.723 495.562C469.777 491.433 514.572 483.345 527.114 483.001C539.168 482.829 544.869 486.099 548.29 495.046C555.457 512.769 539.82 533.246 504.961 552.174C486.229 562.326 451.207 577.124 423.516 586.416C406.175 592.303 391.996 597.072 380.35 600.907L373.099 590.679V581.598C375.576 580.47 378.572 578.756 382.141 576.436C396.15 567.488 426.285 543.226 441.596 528.772C456.094 514.834 468.636 506.231 483.296 499.864C498.12 493.326 499.26 491.777 487.206 494.702C471.731 498.66 460.166 505.37 440.945 521.889C436.71 525.675 432.8 528.256 432.312 527.74C431.823 527.223 433.289 522.75 435.57 517.587C438.013 512.597 438.502 510.361 437.036 512.769C428.891 524.814 417.814 531.181 408.204 529.288C402.991 528.256 381.001 512.425 383.77 511.737C397.425 508.068 411.785 502.258 432.355 491.777L446.386 491.949C449.893 489.139 457.56 483.518 460.166 483.518Z" fill="#9DBFBE"/>
<path d="M457.234 478.528C457.397 478.528 458.7 480.592 460.166 483.518C457.56 483.518 449.893 489.139 446.386 491.949L432.355 491.777C439.758 488.005 447.966 483.628 457.234 478.528Z" fill="#9DBFBE"/>
<path d="M321.709 511.909C324.344 512.245 326.957 512.578 329.51 512.903C345.268 514.909 358.768 516.627 361.291 517.071C364.223 517.415 368.459 516.899 370.576 515.867C373.834 514.318 375.952 515.006 384.422 520.513C389.96 523.954 398.756 531.181 404.295 536.515L414.068 546.151L407.064 552.518L400.059 558.712L389.634 553.722C376.929 547.7 374.811 548.216 386.051 554.755C390.449 557.336 394.195 560.089 394.195 561.121C394.195 561.982 389.146 566.283 382.956 570.585L371.716 578.5L359.662 576.436C346.143 574.371 320.406 565.595 304.117 557.68C274.634 543.398 263.231 525.847 273.005 509.672C274.959 506.575 276.425 506.059 281.475 506.747C283.459 507.061 291.004 508.014 300.833 509.256C300.836 509.256 300.839 509.257 300.842 509.257C307.147 510.053 314.391 510.968 321.709 511.909Z" fill="#9DBFBE"/>
<path d="M324.315 614.807L320.406 613.775L324.315 611.366C328.062 609.129 328.062 608.957 322.523 609.817L316.822 610.678L323.338 608.269C326.721 606.952 328.255 606.355 328.206 606.084C328.165 605.86 327.035 605.86 324.967 605.86C317.637 606.204 316.659 605.86 319.266 603.967C320.569 603.106 323.338 602.246 325.455 602.246C327.41 602.246 329.039 601.386 329.039 600.525C329.039 599.493 327.247 599.149 324.804 599.837C321.546 600.697 320.732 600.353 321.22 598.633C322.686 593.987 332.623 588.48 339.627 588.48C344.677 588.48 347.609 587.276 350.866 584.179C355.264 579.877 362.269 578.5 364.061 581.598C365.356 583.765 368.227 583.815 373.099 581.598V590.679L380.35 600.907C339.918 614.22 330.006 616.277 324.315 614.807Z" fill="#E7C79A"/>
<path fill-rule="evenodd" clip-rule="evenodd" d="M403.969 221.11C403.969 217.841 409.018 211.474 414.394 208.033C420.421 204.247 429.543 203.731 437.198 207.173C447.623 211.819 455.116 227.477 451.37 237.113C449.741 241.415 449.741 243.135 451.859 247.437C457.234 258.45 458.211 269.118 455.279 283.744C451.859 300.091 453.325 309.554 461.795 326.417C464.89 332.612 467.496 339.151 467.496 340.871C467.496 342.592 469.288 345.345 471.568 346.894C480.853 353.26 484.437 370.812 486.391 419.852C487.857 453.233 486.717 457.191 473.523 467.343C467.985 471.817 463.424 475.774 463.587 476.463C463.912 481.281 466.682 486.959 468.473 486.959C469.777 486.959 480.853 485.066 492.907 482.657C518.318 477.667 535.422 477.151 542.589 480.937C549.593 484.894 553.828 493.153 553.828 503.134C553.828 520.341 543.077 534.106 515.549 551.829L501.703 560.605L512.617 561.81C563.439 566.8 601.392 572.306 609.863 575.747C612.143 576.608 612.306 575.747 611.491 568.864L610.351 560.949H619.147L639.671 562.67H646.513C655.635 562.67 656.286 565.423 650.097 579.189C647.327 585.383 645.047 590.889 645.047 591.062C645.047 591.406 648.956 592.954 653.68 594.675C667.689 599.493 669.806 603.451 661.173 608.957L656.123 612.226L667.363 616.012C686.095 622.206 698.801 632.186 698.801 640.274C698.801 645.608 690.819 653.523 680.068 658.857C651.237 673.311 597.809 682.947 526.137 686.905C505.938 687.937 487.695 689.486 485.577 690.346C478.736 692.927 483.948 695.164 502.68 697.917C520.598 700.498 525.648 702.563 521.413 705.488C517.015 708.241 477.595 709.79 414.557 709.618C353.636 709.274 323.827 707.553 320.406 703.94C317.311 700.67 326.596 698.778 352.658 697.573C369.307 696.804 375.321 696.526 375.369 695.797C375.397 695.385 373.518 694.83 370.576 693.96C354.45 689.142 350.703 688.625 322.523 687.593C169.569 681.743 88.4496 641.134 176.411 614.291C186.184 611.366 186.347 611.194 182.112 609.301C173.478 605.687 178.039 599.321 191.722 595.535L198.564 593.47L193.84 585.555C188.953 577.468 184.718 566.455 186.021 565.079C186.51 564.735 189.768 564.219 193.514 564.046L200.193 563.874L208.598 561.533L208.826 561.81L208.673 561.512L215.016 559.745C215.016 559.917 218.111 560.261 221.857 560.433C230.49 560.949 232.445 563.014 230.002 568.692C228.861 571.101 228.047 573.338 228.047 573.51C228.047 573.854 235.54 572.65 244.825 571.101C253.946 569.381 270.724 567.144 282.289 565.939C293.692 564.735 302.977 563.358 302.977 562.842C302.814 562.326 299.393 560.089 294.995 558.024C283.755 552.346 273.168 543.054 268.77 534.967C264.534 526.879 263.883 514.834 267.466 509.156C269.421 506.059 267.792 501.929 252.155 468.547C242.381 448.243 234.562 430.52 234.562 429.143C234.562 427.939 235.214 426.562 236.191 425.874C239.123 423.981 324.804 430.52 328.387 432.929C328.49 432.996 328.59 433.062 328.687 433.126C328.759 433.174 328.828 433.221 328.897 433.266C329.729 433.824 330.361 434.247 330.897 434.137C332.591 433.79 333.316 428.108 336.337 404.449C336.601 402.382 336.882 400.177 337.184 397.827C341.093 365.821 341.419 364.273 346.468 354.293C350.866 345.689 356.242 341.387 365.852 339.323C371.879 337.946 372.205 337.602 371.716 331.752C371.391 327.45 372.531 322.632 375.626 316.265C379.372 308.866 380.187 305.081 380.024 295.961C379.861 289.766 378.558 281.851 377.255 278.41C371.716 264.644 374.974 248.642 385.725 236.941C393.707 228.165 398.105 225.928 409.996 224.552C421.561 223.175 429.054 225.24 439.805 232.811C446.483 237.629 446.809 237.629 443.388 233.671C441.434 231.435 436.384 227.649 432.312 225.584C426.285 222.315 422.864 221.799 414.394 222.315C407.715 222.831 403.969 222.315 403.969 221.11ZM416.348 265.16C418.955 266.709 423.841 268.946 427.099 269.978C438.502 273.936 441.596 286.497 434.918 301.639C430.683 310.931 424.167 317.126 413.742 320.911C405.435 324.008 402.503 323.32 394.847 316.265C386.702 308.694 384.422 302.844 383.119 286.841C381.49 266.881 381.816 265.849 389.634 263.096C393.381 261.891 398.756 258.45 401.362 255.524L406.412 250.19L409.018 256.385C410.484 259.654 413.742 263.612 416.348 265.16ZM447.623 282.539C450.881 285.981 449.741 292.347 445.18 297.338C441.434 301.295 440.619 301.467 440.13 299.058C439.805 297.51 440.782 293.896 442.085 290.971C445.343 284.432 445.343 282.884 442.248 285.637C440.945 286.841 439.805 287.013 439.805 286.153C439.805 284.432 443.225 280.475 444.691 280.475C445.18 280.475 446.483 281.335 447.623 282.539ZM429.217 320.051C427.588 325.557 430.194 335.193 434.429 339.839C439.316 344.829 438.176 347.582 428.239 352.916C415.697 359.627 401.037 355.669 394.358 343.969L391.1 338.462L396.313 335.709C399.245 334.161 401.851 331.235 402.34 328.654C402.991 325.729 403.643 325.041 404.62 326.589C406.901 330.547 414.882 328.826 422.212 322.804C422.556 322.518 422.884 322.244 423.2 321.981C427.671 318.254 429.393 316.818 429.787 317.152C430.034 317.361 429.759 318.265 429.313 319.735L429.217 320.051ZM391.752 345.345C396.476 354.465 407.064 360.143 418.303 359.111C423.678 358.767 428.565 357.046 431.66 354.809L436.547 351.023L432.475 358.939C426.122 371.328 427.099 379.071 436.384 389.395C440.456 394.041 440.456 394.385 437.524 396.622C430.357 402.3 443.714 405.054 452.999 399.891L458.048 397.138L456.908 402.989C454.302 416.238 445.017 423.981 433.289 422.605L425.959 421.744L430.683 424.497C434.103 426.39 437.687 426.906 443.062 426.218L450.881 425.186L449.252 432.413C448.438 436.37 448.112 441.188 448.601 443.081C449.741 447.899 449.252 448.415 431.66 464.418C418.466 476.463 415.697 478.355 412.113 477.495C402.177 474.57 391.1 474.57 385.399 477.495C382.141 479.216 379.535 481.109 379.535 481.969C379.535 482.829 376.603 483.518 373.02 483.518C369.436 483.518 366.504 483.001 366.504 482.313C366.504 481.797 368.459 476.119 370.739 470.096C375.463 457.363 375.952 446.522 372.531 432.241C370.413 423.981 370.413 423.293 372.857 424.325C378.558 427.079 387.354 426.906 392.403 424.325C399.082 420.54 398.756 419.679 391.752 422.088C384.422 424.325 375.137 421.572 369.599 415.378C366.178 411.42 365.689 409.527 365.852 397.827C366.178 384.577 366.178 384.577 364.061 391.46C362.757 395.245 361.78 400.063 361.78 402.128C361.617 406.774 359.174 407.118 348.586 403.677C341.419 401.44 341.256 401.268 341.745 394.729C342.885 380.103 347.12 362.38 350.866 355.325C355.264 347.41 359.662 344.829 374.323 341.387C387.843 338.29 388.168 338.462 391.752 345.345ZM476.129 361.176C478.084 366.166 479.55 374.253 480.039 385.265L481.016 401.784L473.36 404.021C460.655 407.462 460.492 407.462 461.306 396.622C461.795 391.46 461.632 387.502 461.306 388.019C460.818 388.535 459.514 388.019 458.211 386.986C454.791 383.889 455.768 374.597 460.166 368.23C462.446 364.961 465.216 359.283 466.193 355.841C467.659 350.335 468.311 349.647 470.428 351.54C471.731 352.572 474.338 357.046 476.129 361.176ZM352.658 408.495C359.5 410.388 361.291 411.764 363.572 416.926C366.341 423.121 366.341 423.293 361.129 439.123C356.405 453.749 347.771 469.408 345.654 467.171C345.165 466.655 342.396 460.46 339.464 453.233C335.718 444.286 334.414 439.123 335.392 437.231C336.206 435.682 337.346 429.832 337.835 424.153C337.927 423.345 338.015 422.571 338.099 421.83C339.15 412.534 339.62 408.371 341.703 407.025C343.392 405.933 346.143 406.694 351.123 408.072C351.613 408.207 352.124 408.349 352.658 408.495ZM482.156 428.627C482.156 441.016 481.505 452.373 480.527 454.094C477.921 459.428 462.446 470.44 440.619 482.657C422.212 492.981 418.303 494.53 410.484 494.702C405.598 494.702 399.408 495.562 396.802 496.251C390.775 498.144 392.404 494.53 398.593 491.949C400.874 491.089 402.34 489.884 401.851 489.196C401.362 488.68 397.779 489.884 393.87 491.777C385.073 496.423 383.607 494.874 390.937 488.508C394.032 485.754 395.498 483.518 394.358 483.518C393.218 483.518 390.123 485.41 387.354 487.819C378.721 495.562 376.277 491.949 384.259 483.345C389.797 477.495 396.802 476.807 409.344 480.937L417 483.345L431.986 470.096C457.234 447.555 460.003 445.49 464.564 444.458C470.102 443.253 470.591 440.5 465.216 440.5C461.632 440.5 461.143 439.468 459.352 428.111C458.048 420.024 457.886 414.862 458.863 413.141C459.677 411.764 464.075 409.527 468.473 408.495C469.558 408.23 470.558 407.976 471.478 407.742C476.102 406.565 478.738 405.894 480.235 406.986C482.22 408.434 482.204 412.979 482.168 423.551L482.168 423.561C482.162 425.116 482.156 426.802 482.156 428.627ZM456.908 435.338C458.048 440.672 457.071 443.941 454.302 443.941C453.487 443.941 452.836 440.844 452.836 437.059C452.836 428.971 455.442 427.939 456.908 435.338ZM370.576 444.974C371.553 455.47 371.391 457.019 365.852 469.064C360.966 479.904 359.5 481.797 356.079 481.797C350.866 481.797 345.165 472.161 349.237 470.44C353.31 468.72 360.803 455.47 364.061 444.113C365.689 438.435 367.481 433.617 368.133 433.617C368.784 433.617 369.925 438.607 370.576 444.974ZM460.166 483.518C463.098 489.54 463.261 490.4 460.655 490.4C458.211 490.4 447.298 497.111 448.112 498.144C448.601 498.488 452.836 497.283 457.723 495.562C469.777 491.433 514.572 483.345 527.114 483.001C539.168 482.829 544.869 486.099 548.29 495.046C555.457 512.769 539.82 533.246 504.961 552.174C486.229 562.326 451.207 577.124 423.516 586.416C406.175 592.303 391.996 597.072 380.35 600.907C339.918 614.22 330.006 616.277 324.315 614.807L320.406 613.775L324.315 611.366C328.062 609.129 328.062 608.957 322.523 609.817L316.822 610.678L323.338 608.269C326.721 606.952 328.255 606.355 328.206 606.084C328.165 605.86 327.035 605.86 324.967 605.86C317.637 606.204 316.659 605.86 319.266 603.967C320.569 603.106 323.338 602.246 325.455 602.246C327.41 602.246 329.039 601.386 329.039 600.525C329.039 599.493 327.247 599.149 324.804 599.837C321.546 600.697 320.732 600.353 321.22 598.633C322.686 593.987 332.623 588.48 339.627 588.48C344.677 588.48 347.609 587.276 350.866 584.179C355.264 579.877 362.269 578.5 364.061 581.598C365.356 583.765 368.227 583.815 373.099 581.598C375.576 580.47 378.572 578.756 382.141 576.436C396.15 567.488 426.285 543.226 441.596 528.772C456.094 514.834 468.636 506.231 483.296 499.864C498.12 493.326 499.26 491.777 487.206 494.702C471.731 498.66 460.166 505.37 440.945 521.889C436.71 525.675 432.8 528.256 432.312 527.74C431.823 527.223 433.289 522.75 435.57 517.587C438.013 512.597 438.502 510.361 437.036 512.769C428.891 524.814 417.814 531.181 408.204 529.288C402.991 528.256 381.001 512.425 383.77 511.737C397.425 508.068 411.785 502.258 432.355 491.777C439.758 488.005 447.966 483.628 457.234 478.528C457.397 478.528 458.7 480.592 460.166 483.518ZM374.323 487.991C376.603 488.508 377.906 489.884 377.58 491.605C376.929 495.907 389.96 500.725 396.639 498.832C399.245 497.971 404.132 497.283 407.227 497.455C410.973 497.455 404.946 499.864 389.309 504.338C387.823 504.75 386.363 505.155 384.941 505.55C373.888 508.617 365.126 511.049 364.549 511.049C363.083 511.049 358.359 501.757 358.359 498.832C358.359 496.939 372.042 497.799 380.35 500.208C382.63 500.897 383.119 500.553 381.978 499.348C381.164 498.316 375.3 496.939 368.947 496.251C357.708 495.218 353.473 492.809 353.473 487.475C353.473 485.238 362.595 485.41 374.323 487.991ZM329.51 512.903C345.268 514.909 358.768 516.627 361.291 517.071C364.223 517.415 368.459 516.899 370.576 515.867C373.834 514.318 375.952 515.006 384.422 520.513C389.96 523.954 398.756 531.181 404.295 536.515L414.068 546.151L407.064 552.518L400.059 558.712L389.634 553.722C376.929 547.7 374.811 548.216 386.051 554.755C390.449 557.336 394.195 560.089 394.195 561.121C394.195 561.982 389.146 566.283 382.956 570.585L371.716 578.5L359.662 576.436C346.143 574.371 320.406 565.595 304.117 557.68C274.634 543.398 263.231 525.847 273.005 509.672C274.959 506.575 276.425 506.059 281.475 506.747C283.459 507.061 291.004 508.014 300.833 509.256L300.842 509.257C307.147 510.053 314.391 510.968 321.709 511.909C324.344 512.245 326.957 512.578 329.51 512.903ZM491.441 574.715C503.495 576.78 512.454 583.835 514.083 592.61C514.572 596.224 514.246 596.74 511.965 595.879C509.685 595.019 509.522 595.363 510.988 597.084C512.291 598.633 512.454 599.837 510.988 601.214C509.685 602.934 506.427 602.59 496.979 600.353C493.821 599.638 488.787 598.52 483.08 597.252L483.065 597.248C476.415 595.771 468.855 594.091 462.284 592.61C449.904 589.857 439.805 587.276 439.805 586.76C439.805 586.244 446.646 583.318 454.953 580.221C463.098 577.124 471.08 573.854 472.383 572.822C473.686 571.962 476.618 571.618 478.898 572.134C481.179 572.822 486.717 573.854 491.441 574.715Z" fill="#151919"/>
<path d="M647.653 553.55L639.671 562.67L619.147 560.949L619.175 560.949C627.781 560.777 627.939 560.774 624.197 557.852C623.558 557.346 622.519 556.509 621.233 555.473C618.585 553.34 614.89 550.364 611.491 547.7L602.37 540.301L606.93 538.408C613.283 535.999 620.45 537.72 625.826 543.226L630.387 547.872V539.785C630.387 535.311 629.409 528.944 628.106 525.675C625.663 519.824 625.5 519.652 618.333 520.685C612.143 521.717 609.374 521.029 601.881 516.899C596.831 514.318 592.27 511.393 591.945 510.705C590.316 507.779 603.184 503.822 611.329 504.682C620.45 505.543 627.455 511.393 632.179 522.233L635.273 529.116V519.136C635.273 510.705 634.133 506.403 627.943 492.981L620.776 477.151L613.12 476.119C606.768 475.43 604.324 473.882 597.157 466.483C592.596 461.665 587.872 457.707 586.732 457.707C585.592 457.707 584.777 456.847 584.777 455.814C584.777 453.233 600.089 455.47 608.559 459.428C616.541 463.041 621.428 469.58 629.409 486.959L635.273 499.864V487.647C635.273 476.463 634.785 474.742 630.713 470.268C628.269 467.343 624.034 463.902 621.102 462.353C613.772 458.395 609.7 452.029 608.396 442.909C607.908 438.607 607.745 434.65 608.071 434.133C609.863 432.413 625.826 441.188 629.572 446.006C632.667 449.964 633.645 453.061 633.645 459.428C633.645 464.074 634.459 468.375 635.273 468.892C636.251 469.408 636.902 468.547 636.902 466.655C636.902 464.934 638.368 458.912 640.16 453.405C644.558 439.984 644.232 436.887 638.531 431.036C632.667 425.014 629.572 415.55 631.038 407.29C631.527 404.021 634.948 396.966 638.531 391.632C642.115 386.298 645.536 379.931 646.024 377.694C646.513 375.285 647.653 373.393 648.305 373.393C651.237 373.393 656.938 393.353 656.938 403.677C656.938 414.517 655.309 419.163 648.956 427.251C645.047 432.241 643.744 438.779 646.676 438.779C647.653 438.779 648.305 438.091 648.305 437.059C648.305 436.198 651.563 433.445 655.635 430.864C661.01 427.595 666.06 426.046 674.041 425.53L684.955 424.67L679.091 430.52C675.833 433.617 671.272 439.123 668.666 442.909C663.128 450.996 655.146 454.954 649.119 452.545C646.676 451.512 644.558 450.824 644.232 450.824C642.115 450.824 640.16 472.333 640.16 495.218L640.323 522.233L643.907 516.211C645.861 512.769 649.282 507.607 651.563 504.338C654.169 500.725 655.635 496.423 655.798 491.949C655.798 482.657 660.684 476.463 671.272 471.989C681.046 467.687 701.081 466.311 694.729 470.268C691.634 472.333 684.955 479.044 675.182 490.4C672.575 493.498 667.363 497.455 663.779 499.176C658.241 501.757 655.961 504.51 649.445 517.071C642.929 529.116 638.694 542.882 638.531 552.002C638.531 552.346 641.138 550.281 644.232 547.7C647.327 545.119 649.934 541.333 649.934 539.44C649.934 534.45 653.843 529.116 660.847 524.47C666.223 521.029 669.155 520.513 683.326 520.513C692.285 520.513 701.896 521.201 704.502 521.889L709.389 523.438L701.57 526.535C697.172 528.256 689.679 533.246 684.629 537.548C674.693 546.323 670.132 548.216 663.291 546.495C660.847 545.807 658.241 545.119 657.264 544.947C656.449 544.775 652.051 548.732 647.653 553.55Z" fill="#1E3034"/>
<path fill-rule="evenodd" clip-rule="evenodd" d="M224.137 547.356C220.065 549.937 215.016 556.82 215.016 559.745L208.673 561.512L202.636 549.765C199.215 543.054 193.514 532.73 189.93 526.535C186.347 520.341 182.275 510.705 180.809 505.026C178.039 494.702 178.039 494.702 166.8 488.68C155.886 482.829 135.851 466.655 137.48 464.934C138.62 463.902 159.144 469.752 164.845 472.677C170.384 475.43 175.596 481.281 178.039 486.959L179.831 491.261L180.483 485.582C180.809 482.485 179.831 473.71 178.365 465.794C173.641 440.844 173.153 439.295 166.963 435.51C161.913 432.413 161.262 431.208 161.262 425.014C161.262 417.443 163.542 411.248 166.311 411.248C167.289 411.248 170.221 413.657 172.827 416.582C177.551 421.916 178.691 427.939 176.085 433.273C175.27 435.166 175.922 441.704 178.202 451.512L181.786 466.827L183.741 460.116C186.347 450.824 191.396 445.146 202.636 437.919C208.011 434.65 212.735 431.896 213.224 431.896C215.341 431.896 212.246 460.632 209.64 465.794C206.057 472.849 198.727 478.355 191.071 479.56C183.415 480.937 182.437 482.313 182.437 492.981C182.437 502.445 186.51 512.942 195.632 527.568C198.727 532.386 202.799 539.44 204.591 543.054L208.011 549.593L207.36 540.817C206.22 528.944 211.106 518.104 221.694 509.328C229.513 502.789 243.521 495.907 245.313 497.799C246.942 499.52 239.286 525.847 234.4 534.967C231.63 539.957 227.07 545.463 224.137 547.356ZM209.477 552.862C209.966 554.583 210.943 555.443 211.432 554.927C211.921 554.411 211.432 553.034 210.292 551.829C208.663 550.281 208.5 550.453 209.477 552.862Z" fill="#1E3034"/>
<path d="M192.211 542.366C194.491 544.603 199.052 549.765 202.473 554.066L208.598 561.533L200.193 563.874L197.586 559.056C195.957 556.303 192.211 550.969 188.953 547.012C183.415 540.129 183.089 539.957 177.062 541.677C168.755 544.086 162.402 541.849 153.769 533.418C149.859 529.632 145.624 526.535 144.158 526.535C139.434 526.535 141.715 523.61 148.068 521.717C160.936 517.587 170.221 520.169 180.809 531.009C184.881 534.967 189.93 540.129 192.211 542.366Z" fill="#1E3034"/>
<path d="M391.752 345.345C396.476 354.465 407.064 360.143 418.303 359.111C423.678 358.767 428.565 357.046 431.66 354.809L436.547 351.023L432.475 358.939C426.122 371.328 427.099 379.071 436.384 389.395C440.456 394.041 440.456 394.385 437.524 396.622C430.357 402.3 443.714 405.054 452.999 399.891L458.048 397.138L456.908 402.989C454.302 416.238 445.017 423.981 433.289 422.605L425.959 421.744L430.683 424.497C434.103 426.39 437.687 426.906 443.062 426.218L450.881 425.186L449.252 432.413C448.438 436.37 448.112 441.188 448.601 443.081C449.741 447.899 449.252 448.415 431.66 464.418C418.466 476.463 415.697 478.355 412.113 477.495C402.177 474.57 391.1 474.57 385.399 477.495C382.141 479.216 379.535 481.109 379.535 481.969C379.535 482.829 376.603 483.518 373.02 483.518C369.436 483.518 366.504 483.001 366.504 482.313C366.504 481.797 368.459 476.119 370.739 470.096C375.463 457.363 375.952 446.522 372.531 432.241C370.413 423.981 370.413 423.293 372.857 424.325C378.558 427.079 387.354 426.906 392.403 424.325C399.082 420.54 398.756 419.679 391.752 422.088C384.422 424.325 375.137 421.572 369.599 415.378C366.178 411.42 365.689 409.527 365.852 397.827C366.178 384.577 366.178 384.577 364.061 391.46C362.757 395.245 361.78 400.063 361.78 402.128C361.617 406.774 359.174 407.118 348.586 403.677C341.419 401.44 341.256 401.268 341.745 394.729C342.885 380.103 347.12 362.38 350.866 355.325C355.264 347.41 359.662 344.829 374.323 341.387C387.843 338.29 388.168 338.462 391.752 345.345Z" fill="#9DBFBE"/>
<path d="M384.422 275.312C384.422 276.173 385.725 277.033 387.517 277.033C389.146 277.033 392.566 278.754 395.01 280.819C399.408 284.432 399.408 284.432 397.616 280.991C396.639 278.926 393.544 276.517 390.775 275.485C384.422 273.248 384.422 273.248 384.422 275.312Z" fill="#151919"/>
<path d="M419.118 276.517C417.163 276.861 414.72 278.582 413.416 279.958C411.625 282.539 411.625 282.712 414.557 281.335C416.348 280.475 420.909 279.786 424.819 279.786C430.846 279.786 431.497 279.442 429.054 277.549C426.122 275.313 425.47 275.14 419.118 276.517Z" fill="#151919"/>
<path d="M385.004 285.224C387.089 288.904 390.014 290.693 394.671 290.693C399.172 290.693 399.338 289.544 394.671 288.013C389.671 287.248 390.337 286.572 387.089 285.224C385.382 284.515 382.712 281.18 385.004 285.224Z" fill="#151919"/>
<path d="M422.652 287.59C420.942 288.481 417.582 289.737 414.794 289.715C410.999 289.464 410.103 289.049 411.638 290.428C414.708 293.187 423.741 291.791 426.5 288.354C428.936 284.955 427.587 284.592 422.652 287.59Z" fill="#151919"/>
<path d="M399.082 303.532C399.082 305.253 403.643 305.769 405.761 304.392C407.389 303.36 406.901 302.844 403.643 302.844C401.037 302.844 399.082 303.188 399.082 303.532Z" fill="#151919"/>
<path d="M399.082 309.382C399.082 312.136 405.109 313.512 408.367 311.619C410.973 310.071 410.973 309.899 407.715 309.727C405.761 309.727 403.154 309.21 401.688 308.694C400.222 308.178 399.082 308.522 399.082 309.382Z" fill="#151919"/>
<path d="M361.78 501.413C362.106 501.757 367.155 502.445 373.019 502.962C379.698 503.478 381.816 503.306 378.721 502.445C373.671 501.069 360.477 500.208 361.78 501.413Z" fill="#151919"/>
<path d="M366.504 505.887C363.083 507.091 363.083 507.263 365.689 507.435C367.481 507.435 370.088 506.747 371.391 505.887C374.323 503.994 372.205 503.994 366.504 505.887Z" fill="#151919"/>
<path d="M500.889 589.857C501.866 590.889 504.798 592.266 507.404 592.954C510.825 593.643 511.802 593.47 510.662 592.266C509.848 591.234 506.916 589.857 504.146 589.169C500.726 588.48 499.748 588.653 500.889 589.857Z" fill="#151919"/>
<path d="M504.961 598.805C506.264 599.665 508.219 600.525 509.033 600.525C510.01 600.525 509.522 599.665 508.219 598.805C506.916 597.944 505.124 597.084 504.146 597.084C503.332 597.084 503.658 597.944 504.961 598.805Z" fill="#151919"/>
<path d="M198.727 502.962C195.469 504.682 194.654 506.575 194.166 512.77C193.677 522.233 195.469 525.675 200.193 523.954C204.916 522.405 210.129 516.383 210.129 512.597C210.129 508.124 206.708 500.725 204.591 500.725C203.613 500.725 201.007 501.757 198.727 502.962Z" fill="#1D2F31"/>
<path d="M438.169 486.706C444.167 486.706 450.774 487.544 456.631 486.161C458.943 485.615 460.709 485.963 462.69 484.56" stroke="#151919" stroke-width="3" stroke-linecap="round"/>
<path d="M370.844 581.665C370.844 584.393 370.994 586.782 372.296 589.23C373.574 591.632 374.331 594.358 375.558 596.82C375.993 597.693 376.822 598.52 377.439 599.248C378.09 600.017 378.705 601.702 379.843 601.702" stroke="#151919" stroke-width="3" stroke-linecap="round"/>
</svg>
