<svg width="691" height="658" viewBox="0 0 691 658" fill="none" xmlns="http://www.w3.org/2000/svg">
<path d="M179.819 382.89C177.298 381.41 174.472 380.431 171.498 380.009C148.1 374.359 124.812 368.343 101.238 363.403C79.877 358.746 58.9287 352.759 38.5233 345.481C32.6089 343.51 26.8992 341.072 21.4512 338.191C16.0648 335.509 11.4482 331.668 7.94436 326.951C4.44053 322.235 2.13948 316.765 1.21274 310.949C0.121389 305.019 -0.0481212 298.92 0.709527 292.846C2.0424 283.633 2.61381 274.355 3.71553 265.249C5.52597 251.209 8.94026 237.319 13.8968 223.828C16.6048 217.829 20.7359 212.456 25.9484 208.151C26.8601 207.392 27.9128 206.808 29.0437 206.434C30.1746 206.06 31.3604 205.903 32.5304 205.974C35.8971 205.99 39.2013 206.58 42.2886 207.713C53.6892 211.044 64.2769 216.011 75.1924 220.354C86.108 224.697 96.1836 229.17 106.959 233.212C126.785 240.736 147.116 246.926 166.767 255.161C167.065 255.293 167.388 255.373 167.721 255.398C168.667 255.23 169.587 254.924 170.45 254.492C170.682 254.384 170.59 253.222 170.257 252.748C169.602 251.685 168.837 250.69 167.972 249.779C157.091 237.299 145.069 225.875 133.357 214.149C108.195 188.817 82.9752 163.565 57.6986 138.392C51.1911 131.842 45.4247 124.648 40.4861 116.917C37.1466 111.502 35.4711 105.235 35.6406 98.7949C34.936 90.7488 37.545 82.5836 42.9189 76.0166C43.6429 75.3096 44.2118 74.4736 44.5886 73.562C47.5159 62.8192 55.4807 54.9154 62.2905 46.3448C65.2188 42.727 68.3397 39.2815 71.2679 35.6637C78.2114 27.0953 86.377 19.4763 95.505 13.0496C104.324 6.67221 114.655 2.59911 125.407 1.26081C140.272 -0.430948 155.016 2.7759 167.176 10.346C180.11 17.6597 191.868 26.6456 202.139 37.0649C209.064 44.3158 215.434 51.8253 221.527 59.4641C232.201 72.8266 241.773 86.9645 251.088 101.275C261.937 117.909 271.551 135.276 283.613 151.134C286.202 149.928 285.874 147.776 285.886 145.989C285.874 133.892 286.365 121.664 285.832 109.653C285.273 93.7241 284.237 77.8601 283.202 61.996C282.793 56.3103 283.256 50.5526 284.577 44.9037C285.132 42.4018 286.235 40.013 287.81 37.8964C289.385 35.7798 291.397 33.9841 293.712 32.6294C298.023 29.8605 302.948 28.1608 308.012 27.6934C318.743 26.7882 329.486 26.6676 340.146 27.3333C346.495 27.6746 352.812 28.1882 359.183 28.9386C369.155 29.3463 378.48 33.0618 385.563 39.4503C392.647 45.8388 397.049 54.5039 398.018 63.9643C398.73 68.8719 399.859 73.9513 400.406 78.9881C401.634 91.6286 401.79 104.399 400.873 117.175C399.962 132.847 398.349 148.583 396.987 164.254C396.569 165.819 396.658 167.441 397.241 168.903C400.059 167.051 402.609 164.839 404.815 162.335L437.256 116.878C437.545 116.277 437.902 115.707 438.32 115.177C443.023 110.374 446.834 104.854 449.575 98.8762C450.509 97.2024 451.681 95.6512 453.054 94.2682C455.545 91.2776 458.951 89.0984 462.751 88.066C466.55 87.0335 470.531 87.2045 474.082 88.5533C479.269 90.4179 484.182 92.8569 488.725 95.8223C505.101 107.186 520.53 119.71 534.892 133.298C546.157 144.185 547.286 157.595 544.569 172.17C542.433 183.644 536.387 194.216 534.006 205.648C528.634 211.871 528.118 220.18 522.965 226.512C520.385 230.379 518.039 234.377 515.94 238.483C513.941 241.866 511.696 245.119 509.222 248.216C507.233 250.049 506.001 252.494 505.773 255.063C505.665 257.367 503.398 259.628 502.185 261.975C502.113 262.267 502.114 262.568 502.188 262.852C502.262 263.137 502.406 263.397 502.61 263.611C502.856 263.79 503.149 263.904 503.462 263.942C503.775 263.979 504.097 263.939 504.398 263.825C509.013 261.026 513.33 257.785 517.279 254.154C529.423 243.988 541.587 233.865 553.67 223.569C559.551 218.983 566.158 215.353 573.205 212.84C575.396 211.903 577.765 211.483 580.104 211.617C582.443 211.751 584.68 212.435 586.618 213.608C593.146 217.22 599.119 221.637 604.394 226.753C615.337 237.841 625.292 249.792 634.164 262.493C641.593 272.757 648.442 283.345 655.125 294.061C655.827 295.108 656.682 296.049 657.667 296.858C660.174 299.339 661.692 302.597 661.98 306.112C663.658 315.538 662.706 325.355 659.216 334.593C654.845 346.303 648.62 357.39 640.767 367.45C622.104 391.513 601.513 414.199 579.195 435.286C554.922 458.546 530.044 481.354 505.471 504.334C504.192 505.454 502.873 506.488 501.701 507.715C501.221 508.08 500.825 508.536 500.541 509.052C500.257 509.569 500.092 510.133 500.057 510.703C500.023 511.274 500.12 511.838 500.341 512.356C500.563 512.874 500.903 513.332 501.339 513.7C505.312 518.24 509.45 522.651 513.496 527.105C532.499 548.076 551.481 569.04 570.441 589.997C583.828 604.715 597.264 619.776 610.784 634.537C634.604 660.529 658.563 686.456 682.429 712.427C683.533 713.589 684.519 714.858 685.637 716.171C689.942 720.818 693.677 725.574 687.844 732.013C687.651 740.171 681.777 743.747 674.821 746.57C670.521 748.574 666.175 750.6 661.876 752.604C658.175 754.392 654.07 755.148 650.054 754.779C646.039 754.411 642.284 752.934 639.242 750.527C635.592 747.922 632.13 745.09 628.876 742.05C615.369 728.122 601.965 714.094 588.664 699.965C578.671 689.271 568.89 678.427 559.154 667.561C543.45 650.046 528.451 631.993 513.802 613.725C498.528 594.717 483.211 575.66 467.852 556.552C465.688 553.841 463.972 550.763 461.689 548.16C459.407 545.556 457.95 545.45 454.977 547.884C447.144 554.259 439.411 560.85 431.598 567.268C417.147 579.44 402.021 590.846 386.295 601.43C371.613 611.102 357.245 621.205 341.725 629.801C332.779 634.756 323.975 640.013 315.387 645.011C304.673 650.922 293.564 656.1 282.148 660.504C274.482 664.228 266.139 666.327 257.72 666.651C247.06 666.428 236.491 665.324 226.131 663.351C218.709 661.565 211.978 658.001 206.556 652.985C193.208 641.509 181.543 628.371 171.844 613.888C165.092 603.99 158.439 593.94 151.871 583.955C148.305 578.597 147.869 571.989 145.326 566.049C145.015 565.158 145.055 564.173 145.438 563.272C148.98 556.382 151.863 548.804 159.534 544.495C160.458 544.064 161.383 543.633 162.307 543.202C176.016 536.393 189.183 528.422 202.026 520.602C204.095 519.455 206.243 518.453 208.452 517.607C219.491 513.038 229.041 505.758 239.831 500.414C244.202 497.823 248.389 494.943 252.359 491.798C245.948 493.738 241.585 494.881 237.316 496.347C228.362 499.472 219.517 503.072 210.495 505.81C201.473 508.548 191.12 512.535 181.683 515.833C172.842 518.959 163.72 521.481 155.014 525.382C143.158 530.488 130.712 534.051 118.025 535.969C102.37 538.603 89.5339 531.225 82.3805 517.689C78.8612 510.527 76.2549 502.95 74.6147 495.112C70.449 477.217 67.2718 459.077 65.0958 440.764C64.6161 437.32 64.8638 433.746 64.6353 430.237C64.4248 423.56 66.5618 416.885 70.7073 411.27C73.2066 407.185 76.705 403.708 80.8831 401.156C85.0612 398.605 89.7856 397.06 94.6249 396.664C115.301 393.576 135.916 389.993 156.71 388.003C160.421 387.635 164.113 387.224 167.621 387.265C171.655 387.361 175.699 386.383 179.303 384.44C180.041 384.934 180.732 385.451 181.215 384.073L179.819 382.89Z" fill="#669E9C"/>
</svg>
