<svg width="357" height="68" viewBox="0 0 357 68" fill="none" xmlns="http://www.w3.org/2000/svg">
    <path d="M115.496 67.04C113.352 67.04 112.28 65.792 112.28 63.296V60.512C112.28 59.264 112.296 58.24 112.328 57.44C112.392 56.64 112.472 55.936 112.568 55.328C112.696 54.72 112.872 54.096 113.096 53.456C112.488 54.448 111.656 55.184 110.6 55.664C109.544 56.144 108.168 56.384 106.472 56.384C104.584 56.384 102.888 56 101.384 55.232C99.912 54.464 98.76 53.232 97.928 51.536C97.096 49.808 96.68 47.504 96.68 44.624C96.68 40.304 97.688 37.024 99.704 34.784C101.752 32.544 104.536 31.424 108.056 31.424C111.512 31.424 114.2 32.512 116.12 34.688C118.04 36.832 119 40.064 119 44.384V63.296C119 65.792 117.832 67.04 115.496 67.04ZM107.72 50.768C109.064 50.768 110.104 50.304 110.84 49.376C111.608 48.416 111.992 46.624 111.992 44C111.992 41.376 111.608 39.6 110.84 38.672C110.104 37.712 109.064 37.232 107.72 37.232C106.376 37.232 105.32 37.712 104.552 38.672C103.816 39.6 103.448 41.376 103.448 44C103.448 46.624 103.816 48.416 104.552 49.376C105.32 50.304 106.376 50.768 107.72 50.768ZM137.771 56.384C135.659 56.384 133.803 55.952 132.203 55.088C130.603 54.224 129.355 53.008 128.459 51.44C127.595 49.872 127.163 48.048 127.163 45.968V34.736C127.163 32.56 128.315 31.472 130.619 31.472C132.923 31.472 134.075 32.56 134.075 34.736V45.872C134.075 47.376 134.395 48.544 135.035 49.376C135.675 50.208 136.587 50.624 137.771 50.624C138.955 50.624 139.867 50.208 140.507 49.376C141.147 48.544 141.467 47.376 141.467 45.872V34.736C141.467 32.56 142.619 31.472 144.923 31.472C147.227 31.472 148.379 32.56 148.379 34.736V45.968C148.379 48.048 147.931 49.872 147.035 51.44C146.171 53.008 144.939 54.224 143.339 55.088C141.771 55.952 139.915 56.384 137.771 56.384ZM160.372 27.488C159.188 27.488 158.196 27.104 157.396 26.336C156.596 25.568 156.196 24.624 156.196 23.504C156.196 22.32 156.596 21.344 157.396 20.576C158.196 19.808 159.188 19.424 160.372 19.424C161.588 19.424 162.58 19.808 163.348 20.576C164.148 21.344 164.548 22.32 164.548 23.504C164.548 24.624 164.148 25.568 163.348 26.336C162.58 27.104 161.588 27.488 160.372 27.488ZM163.828 53.168C163.828 55.312 162.708 56.384 160.468 56.384C159.38 56.384 158.516 56.128 157.876 55.616C157.236 55.072 156.916 54.256 156.916 53.168V34.88C156.916 33.856 157.172 33.056 157.684 32.48C158.228 31.904 159.124 31.616 160.372 31.616C161.62 31.616 162.5 31.904 163.012 32.48C163.556 33.056 163.828 33.856 163.828 34.88V53.168ZM183.293 56.384C179.389 56.384 176.493 55.264 174.605 53.024C172.717 50.752 171.773 47.76 171.773 44.048C171.773 40.336 172.717 37.344 174.605 35.072C176.493 32.768 179.389 31.616 183.293 31.616C185.757 31.616 187.549 31.872 188.669 32.384C189.821 32.896 190.397 33.808 190.397 35.12C190.397 36.048 190.141 36.72 189.629 37.136C189.117 37.552 188.429 37.76 187.565 37.76C186.957 37.76 186.477 37.712 186.125 37.616C185.773 37.52 185.389 37.44 184.973 37.376C184.589 37.28 183.981 37.232 183.149 37.232C182.029 37.232 181.133 37.568 180.461 38.24C179.821 38.912 179.357 39.776 179.069 40.832C178.813 41.856 178.685 42.928 178.685 44.048C178.685 45.136 178.781 46.208 178.973 47.264C179.197 48.288 179.629 49.136 180.269 49.808C180.909 50.448 181.885 50.768 183.197 50.768C184.413 50.768 185.309 50.688 185.885 50.528C186.461 50.336 187.021 50.24 187.565 50.24C188.429 50.24 189.117 50.4 189.629 50.72C190.141 51.008 190.397 51.616 190.397 52.544C190.397 53.856 189.821 54.832 188.669 55.472C187.549 56.08 185.757 56.384 183.293 56.384ZM201.964 56.384C200.716 56.384 199.82 56.048 199.276 55.376C198.764 54.704 198.508 53.792 198.508 52.64V23.168C198.508 22.016 198.764 21.104 199.276 20.432C199.82 19.76 200.716 19.424 201.964 19.424C203.212 19.424 204.092 19.76 204.604 20.432C205.148 21.104 205.42 22.016 205.42 23.168V41.024C207.116 40 208.62 38.848 209.932 37.568C211.244 36.256 212.14 35.008 212.62 33.824C213.068 32.736 213.708 32 214.54 31.616C215.372 31.232 216.284 31.28 217.276 31.76C218.652 32.432 219.292 33.456 219.196 34.832C219.164 35.984 218.636 37.28 217.612 38.72C216.62 40.128 215.388 41.344 213.916 42.368C215.772 43.008 217.26 44.176 218.38 45.872C219.532 47.536 220.108 49.952 220.108 53.12C220.108 55.296 218.972 56.384 216.7 56.384C214.364 56.384 213.196 55.296 213.196 53.12C213.196 50.784 212.828 49.072 212.092 47.984C211.356 46.896 210.38 46.352 209.164 46.352C208.044 46.352 207.132 46.768 206.428 47.6C205.756 48.432 205.42 49.872 205.42 51.92C205.42 53.776 205.148 54.992 204.604 55.568C204.06 56.112 203.18 56.384 201.964 56.384ZM238.598 56.384C235.142 56.384 232.454 55.312 230.534 53.168C228.614 51.024 227.654 47.792 227.654 43.472V23.168C227.654 20.672 228.822 19.424 231.158 19.424C233.302 19.424 234.374 20.672 234.374 23.168V27.296C234.374 28.544 234.342 29.568 234.278 30.368C234.246 31.168 234.166 31.872 234.038 32.48C233.942 33.056 233.782 33.68 233.558 34.352C234.166 33.36 234.998 32.656 236.054 32.24C237.142 31.824 238.518 31.616 240.182 31.616C242.102 31.616 243.798 31.984 245.27 32.72C246.742 33.424 247.894 34.624 248.726 36.32C249.558 38.016 249.974 40.304 249.974 43.184C249.974 47.504 248.95 50.784 246.902 53.024C244.886 55.264 242.118 56.384 238.598 56.384ZM238.934 50.624C240.278 50.624 241.318 50.144 242.054 49.184C242.822 48.224 243.206 46.432 243.206 43.808C243.206 42.048 243.03 40.72 242.678 39.824C242.358 38.896 241.878 38.256 241.238 37.904C240.598 37.552 239.83 37.376 238.934 37.376C238.038 37.376 237.27 37.552 236.63 37.904C235.99 38.256 235.494 38.896 235.142 39.824C234.822 40.72 234.662 42.048 234.662 43.808C234.662 46.432 235.03 48.224 235.766 49.184C236.534 50.144 237.59 50.624 238.934 50.624ZM267.803 56.384C264.379 56.384 261.675 55.408 259.691 53.456C257.707 51.504 256.715 48.352 256.715 44C256.715 39.616 257.707 36.464 259.691 34.544C261.675 32.592 264.379 31.616 267.803 31.616C271.227 31.616 273.931 32.592 275.915 34.544C277.899 36.464 278.891 39.616 278.891 44C278.891 48.352 277.899 51.504 275.915 53.456C273.931 55.408 271.227 56.384 267.803 56.384ZM267.803 50.624C268.699 50.624 269.451 50.448 270.059 50.096C270.667 49.712 271.131 49.04 271.451 48.08C271.803 47.12 271.979 45.76 271.979 44C271.979 42.24 271.803 40.88 271.451 39.92C271.131 38.96 270.667 38.304 270.059 37.952C269.451 37.568 268.699 37.376 267.803 37.376C266.939 37.376 266.187 37.568 265.547 37.952C264.939 38.304 264.459 38.96 264.107 39.92C263.787 40.88 263.627 42.24 263.627 44C263.627 45.76 263.787 47.12 264.107 48.08C264.459 49.04 264.939 49.712 265.547 50.096C266.187 50.448 266.939 50.624 267.803 50.624ZM295.368 56.384C292.168 56.384 289.672 55.648 287.88 54.176C286.088 52.672 285.192 50.736 285.192 48.368C285.192 45.584 286.36 43.568 288.696 42.32C291.064 41.072 294.52 40.64 299.064 41.024C298.84 39.552 298.376 38.56 297.672 38.048C296.968 37.504 296.12 37.232 295.128 37.232C294.328 37.232 293.656 37.28 293.112 37.376C292.6 37.44 292.12 37.52 291.672 37.616C291.224 37.712 290.68 37.76 290.04 37.76C289.176 37.76 288.488 37.616 287.976 37.328C287.464 37.008 287.208 36.384 287.208 35.456C287.208 34.144 287.768 33.184 288.888 32.576C290.04 31.936 291.848 31.616 294.312 31.616C298.216 31.616 301.112 32.736 303 34.976C304.888 37.184 305.832 40.144 305.832 43.856C305.832 48.144 305.048 51.312 303.48 53.36C301.944 55.376 299.24 56.384 295.368 56.384ZM292.104 48.368C292.104 50.192 293.336 51.104 295.8 51.104C296.6 51.104 297.224 50.96 297.672 50.672C298.12 50.384 298.44 49.808 298.632 48.944C298.856 48.08 299.016 46.784 299.112 45.056C298.952 45.216 298.744 45.328 298.488 45.392C298.232 45.456 297.976 45.488 297.72 45.488C295.608 45.488 294.136 45.696 293.304 46.112C292.504 46.496 292.104 47.248 292.104 48.368ZM317.264 56.384C314.96 56.384 313.808 55.296 313.808 53.12V34.928C313.808 32.72 314.96 31.616 317.264 31.616C318.416 31.616 319.248 31.872 319.76 32.384C320.272 32.864 320.528 33.664 320.528 34.784C321.104 33.728 321.92 32.944 322.976 32.432C324.064 31.888 325.328 31.616 326.768 31.616C329.52 31.616 330.896 32.816 330.896 35.216C330.896 36.112 330.56 36.784 329.888 37.232C329.216 37.68 328.112 37.904 326.576 37.904C325.072 37.904 323.888 38.048 323.024 38.336C322.16 38.592 321.552 39.088 321.2 39.824C320.88 40.528 320.72 41.552 320.72 42.896V53.12C320.72 55.296 319.568 56.384 317.264 56.384ZM345.905 56.384C342.385 56.384 339.601 55.264 337.553 53.024C335.537 50.784 334.529 47.504 334.529 43.184C334.529 40.304 334.945 38.016 335.777 36.32C336.609 34.624 337.761 33.424 339.233 32.72C340.737 31.984 342.433 31.616 344.321 31.616C346.017 31.616 347.393 31.824 348.449 32.24C349.505 32.656 350.337 33.36 350.945 34.352C350.721 33.68 350.545 33.056 350.417 32.48C350.321 31.872 350.241 31.168 350.177 30.368C350.145 29.568 350.129 28.544 350.129 27.296V23.168C350.129 20.672 351.201 19.424 353.345 19.424C355.681 19.424 356.849 20.672 356.849 23.168V43.472C356.849 47.792 355.889 51.024 353.969 53.168C352.049 55.312 349.361 56.384 345.905 56.384ZM345.569 50.624C346.913 50.624 347.953 50.144 348.689 49.184C349.457 48.224 349.841 46.432 349.841 43.808C349.841 42.048 349.665 40.72 349.313 39.824C348.993 38.896 348.513 38.256 347.873 37.904C347.233 37.552 346.465 37.376 345.569 37.376C344.673 37.376 343.905 37.552 343.265 37.904C342.625 38.256 342.129 38.896 341.777 39.824C341.457 40.72 341.297 42.048 341.297 43.808C341.297 46.432 341.665 48.224 342.401 49.184C343.169 50.144 344.225 50.624 345.569 50.624Z" fill="#F8F9FD"/>
    <path d="M21 21C21 30.8969 40.5 41 40.5 41C40.5 41 60 30.8969 60 21" stroke="#F8F9FD" stroke-width="42" stroke-linecap="round"/>
    <path d="M30.0458 32.121L38.2828 40.2788C38.6641 40.6564 39.2755 40.6658 39.6681 40.3L57.0158 24.1404" stroke="#E59B34" stroke-width="9" stroke-linecap="round" stroke-linejoin="round"/>
</svg>
