<svg width="259" height="80" viewBox="0 0 259 80" fill="none" xmlns="http://www.w3.org/2000/svg">
<path d="M98 62.384C96.3787 62.384 94.9173 62.0853 93.616 61.488C92.336 60.8693 91.248 60.0373 90.352 58.992C89.456 57.9253 88.7733 56.688 88.304 55.28C87.8347 53.872 87.6 52.368 87.6 50.768C87.6 48.5707 88.016 46.608 88.848 44.88C89.68 43.1307 90.864 41.7547 92.4 40.752C93.9573 39.728 95.824 39.216 98 39.216C99.6213 39.216 101.072 39.5147 102.352 40.112C103.653 40.7093 104.752 41.5413 105.648 42.608C106.544 43.6747 107.227 44.9013 107.696 46.288C108.187 47.6747 108.432 49.168 108.432 50.768C108.432 52.432 108.197 53.8827 107.728 55.12C107.259 56.336 106.704 57.392 106.064 58.288L108.912 59.856L107.536 62.384L104.432 60.08C103.643 60.7413 102.715 61.296 101.648 61.744C100.581 62.1707 99.3653 62.384 98 62.384ZM97.936 59.76C98.8107 59.76 99.6 59.6533 100.304 59.44C101.029 59.2267 101.648 58.96 102.16 58.64L99.728 57.104L101.008 54.768L103.888 56.848C104.4 56.016 104.763 55.1093 104.976 54.128C105.211 53.1253 105.328 52.0053 105.328 50.768C105.328 49.616 105.157 48.5067 104.816 47.44C104.496 46.3733 104.016 45.424 103.376 44.592C102.757 43.7387 101.989 43.0667 101.072 42.576C100.176 42.0853 99.152 41.84 98 41.84C96.464 41.84 95.152 42.2347 94.064 43.024C92.976 43.792 92.144 44.848 91.568 46.192C90.992 47.536 90.704 49.0613 90.704 50.768C90.704 51.92 90.864 53.04 91.184 54.128C91.504 55.1947 91.9733 56.1547 92.592 57.008C93.2107 57.8613 93.968 58.5333 94.864 59.024C95.76 59.5147 96.784 59.76 97.936 59.76ZM118.344 62.384C117.384 62.384 116.477 62.1813 115.624 61.776C114.77 61.3707 114.077 60.72 113.544 59.824C113.01 58.9067 112.744 57.6907 112.744 56.176V45.36H115.624V55.792C115.624 57.0933 115.901 58.096 116.456 58.8C117.01 59.4827 117.821 59.824 118.888 59.824C119.762 59.824 120.605 59.6533 121.416 59.312C122.248 58.9493 122.984 58.4693 123.624 57.872V45.36H126.504V57.68C126.504 58.5973 126.696 59.2053 127.08 59.504C127.485 59.7813 127.922 59.92 128.392 59.92L127.784 62.16C125.8 62.16 124.573 61.3707 124.104 59.792C123.357 60.56 122.493 61.1893 121.512 61.68C120.53 62.1493 119.474 62.384 118.344 62.384ZM132.216 62V45.36H135.096V62H132.216ZM133.656 42.512C133.102 42.512 132.622 42.3093 132.216 41.904C131.832 41.4987 131.64 41.0293 131.64 40.496C131.64 39.8773 131.822 39.3867 132.184 39.024C132.547 38.6613 133.038 38.48 133.656 38.48C134.211 38.48 134.68 38.6827 135.064 39.088C135.47 39.472 135.672 39.9413 135.672 40.496C135.672 41.0933 135.491 41.584 135.128 41.968C134.766 42.3307 134.275 42.512 133.656 42.512ZM146.936 62.384C145.358 62.384 143.971 62.0213 142.776 61.296C141.603 60.5493 140.696 59.5253 140.056 58.224C139.416 56.9013 139.096 55.3867 139.096 53.68C139.096 52.08 139.416 50.6187 140.056 49.296C140.718 47.9733 141.656 46.928 142.872 46.16C144.088 45.3707 145.518 44.976 147.16 44.976C148.099 44.976 148.92 45.0613 149.624 45.232C150.35 45.4027 151.043 45.648 151.704 45.968L150.84 48.4C150.243 48.1013 149.667 47.888 149.112 47.76C148.579 47.6107 147.982 47.536 147.32 47.536C145.827 47.536 144.568 48.08 143.544 49.168C142.542 50.2347 142.04 51.7173 142.04 53.616C142.04 54.768 142.254 55.8133 142.68 56.752C143.107 57.6907 143.694 58.4373 144.44 58.992C145.208 59.5467 146.104 59.824 147.128 59.824C147.939 59.824 148.632 59.7387 149.208 59.568C149.784 59.376 150.403 59.1093 151.064 58.768L151.96 61.2C151.299 61.5627 150.552 61.8507 149.72 62.064C148.91 62.2773 147.982 62.384 146.936 62.384ZM166.798 62.32L158.19 53.456V62H155.31V38.32H158.19V51.856L165.71 45.04L167.374 46.864L160.942 52.56L168.782 60.4L166.798 62.32ZM178.438 62.256C177.136 62.256 175.899 62.224 174.726 62.16C173.574 62.096 172.656 62.0213 171.974 61.936V39.664C172.72 39.5787 173.648 39.504 174.758 39.44C175.867 39.376 177.136 39.344 178.566 39.344C181.296 39.344 183.398 39.8667 184.87 40.912C186.342 41.936 187.078 43.3333 187.078 45.104C187.078 46.2773 186.758 47.28 186.118 48.112C185.499 48.9227 184.592 49.5947 183.398 50.128C184.848 50.64 185.947 51.3547 186.694 52.272C187.44 53.168 187.814 54.2773 187.814 55.6C187.814 57.6267 187.014 59.248 185.414 60.464C183.814 61.6587 181.488 62.256 178.438 62.256ZM175.014 49.264H178.534C180.219 49.264 181.552 48.912 182.534 48.208C183.536 47.504 184.038 46.5973 184.038 45.488C184.038 44.2933 183.547 43.3867 182.566 42.768C181.584 42.128 180.24 41.808 178.534 41.808C177.83 41.808 177.19 41.8293 176.614 41.872C176.038 41.8933 175.504 41.9253 175.014 41.968V49.264ZM178.662 59.728C180.56 59.728 182.043 59.3867 183.11 58.704C184.176 58.0213 184.71 57.0293 184.71 55.728C184.71 54.448 184.187 53.4453 183.142 52.72C182.096 51.9947 180.603 51.632 178.662 51.632H175.014V59.536C176.144 59.664 177.36 59.728 178.662 59.728ZM198.818 62.384C197.239 62.384 195.821 62.0213 194.562 61.296C193.303 60.5493 192.311 59.5253 191.586 58.224C190.882 56.9013 190.53 55.3867 190.53 53.68C190.53 51.888 190.893 50.3413 191.618 49.04C192.343 47.7387 193.335 46.736 194.594 46.032C195.853 45.328 197.261 44.976 198.818 44.976C200.375 44.976 201.773 45.328 203.01 46.032C204.269 46.736 205.261 47.7387 205.986 49.04C206.733 50.32 207.106 51.8453 207.106 53.616C207.106 55.3867 206.743 56.9333 206.018 58.256C205.293 59.5573 204.301 60.5707 203.042 61.296C201.805 62.0213 200.397 62.384 198.818 62.384ZM198.818 59.824C200.503 59.824 201.815 59.2587 202.754 58.128C203.693 56.976 204.162 55.4933 204.162 53.68C204.162 52.5707 203.927 51.5573 203.458 50.64C202.989 49.7013 202.349 48.9547 201.538 48.4C200.749 47.824 199.842 47.536 198.818 47.536C197.133 47.536 195.821 48.0907 194.882 49.2C193.943 50.3093 193.474 51.7813 193.474 53.616C193.474 54.7253 193.709 55.76 194.178 56.72C194.647 57.6587 195.277 58.416 196.066 58.992C196.877 59.5467 197.794 59.824 198.818 59.824ZM217.303 62.384C215.916 62.384 214.658 62.032 213.527 61.328C212.396 60.624 211.49 59.632 210.807 58.352C210.146 57.0507 209.815 55.5253 209.815 53.776C209.815 52.112 210.146 50.6187 210.807 49.296C211.49 47.9733 212.418 46.928 213.591 46.16C214.786 45.3707 216.151 44.976 217.687 44.976C218.647 44.976 219.511 45.1467 220.279 45.488C221.068 45.808 221.751 46.2133 222.327 46.704V45.36H224.951V57.968C224.951 58.7787 225.143 59.312 225.527 59.568C225.932 59.8027 226.37 59.92 226.839 59.92L226.231 62.16C224.183 62.16 222.946 61.328 222.519 59.664C222.028 60.3467 221.356 60.976 220.503 61.552C219.671 62.1067 218.604 62.384 217.303 62.384ZM217.943 59.824C218.754 59.824 219.522 59.632 220.247 59.248C220.972 58.8427 221.58 58.3413 222.071 57.744V48.816C221.495 48.4107 220.855 48.0907 220.151 47.856C219.468 47.6 218.743 47.472 217.975 47.472C216.951 47.472 216.044 47.7387 215.255 48.272C214.487 48.784 213.879 49.5093 213.431 50.448C212.983 51.3653 212.759 52.4427 212.759 53.68C212.759 54.8747 212.983 55.9413 213.431 56.88C213.879 57.7973 214.498 58.5227 215.287 59.056C216.076 59.568 216.962 59.824 217.943 59.824ZM230.685 62V45.36H233.469V48.976C233.746 48.272 234.12 47.6213 234.589 47.024C235.058 46.4053 235.645 45.9147 236.349 45.552C237.053 45.168 237.874 44.976 238.813 44.976C239.133 44.976 239.453 44.9973 239.773 45.04C240.093 45.0613 240.36 45.104 240.573 45.168L239.709 48.144C239.304 47.9733 238.824 47.888 238.269 47.888C237.48 47.888 236.722 48.112 235.997 48.56C235.293 49.008 234.706 49.7013 234.237 50.64C233.789 51.5787 233.565 52.7733 233.565 54.224V62H230.685ZM248.802 62.384C247.436 62.384 246.188 62.032 245.058 61.328C243.927 60.624 243.031 59.632 242.37 58.352C241.708 57.0507 241.378 55.5253 241.378 53.776C241.378 52.0907 241.708 50.5867 242.37 49.264C243.052 47.9413 243.948 46.896 245.058 46.128C246.188 45.36 247.426 44.976 248.77 44.976C249.879 44.976 250.828 45.2 251.618 45.648C252.428 46.096 253.058 46.5547 253.506 47.024V38.32H256.385V57.968C256.385 58.7787 256.578 59.312 256.962 59.568C257.367 59.8027 257.804 59.92 258.274 59.92L257.666 62.16C255.639 62.16 254.402 61.3493 253.954 59.728C253.484 60.3893 252.823 60.9973 251.97 61.552C251.138 62.1067 250.082 62.384 248.802 62.384ZM249.442 59.824C250.231 59.824 250.978 59.6427 251.682 59.28C252.407 58.896 253.015 58.4053 253.506 57.808V49.552C253.1 49.04 252.535 48.5707 251.81 48.144C251.084 47.696 250.284 47.472 249.41 47.472C248.386 47.472 247.49 47.7493 246.722 48.304C245.954 48.8587 245.356 49.6053 244.93 50.544C244.524 51.4613 244.322 52.5067 244.322 53.68C244.322 54.8533 244.546 55.9093 244.994 56.848C245.442 57.7653 246.05 58.4907 246.818 59.024C247.607 59.5573 248.482 59.824 249.442 59.824Z" fill="black"/>
<rect x="1" y="65.1014" width="23.694" height="5.54154" rx="2.77077" transform="rotate(-46.2 1 65.1014)" fill="#1D2F31"/>
<rect x="-1" y="55.1014" width="23.694" height="5.54154" rx="2.77077" transform="rotate(-46.2 -1 55.1014)" fill="#1D2F31"/>
<rect x="1" y="76.8632" width="27.5205" height="5.54154" rx="2.77077" transform="rotate(-46.2 1 76.8632)" fill="#1D2F31"/>
<rect x="15" y="74.7428" width="20.4262" height="5.54154" rx="2.77077" transform="rotate(-46.2 15 74.7428)" fill="#253938"/>
<path d="M51.5807 55.7955C43.7838 61.928 35.1352 53.8922 31.0271 48.3941C28.5482 44.3411 28 41.419 28 36.9748C28 27.0358 37.6966 19 48.3243 19C58.9521 19 68 27.2812 68 36.9748C68 42.5742 66.7027 44.7991 62.5946 48.3941" stroke="url(#paint0_linear_0_1)" stroke-width="14"/>
<rect x="45.9508" y="46.8651" width="10.6237" height="26.3835" rx="5.31186" transform="rotate(-40.2562 45.9508 46.8651)" fill="url(#paint1_linear_0_1)"/>
<path d="M70.2795 18.3373C69.175 17.2781 69.1383 15.5242 70.1974 14.4197L82.7615 1.31795C83.8207 0.213475 85.5747 0.176738 86.6791 1.23589C87.7836 2.29505 87.8204 4.04902 86.7612 5.1535L74.1971 18.2552C73.1379 19.3597 71.3839 19.3964 70.2795 18.3373Z" fill="#1D2F31"/>
<path d="M80.9321 19.2873C79.4672 18.845 78.6382 17.2988 79.0805 15.8339L83.2663 1.97063C83.7086 0.505691 85.2547 -0.32331 86.7196 0.118999C88.1846 0.561308 89.0136 2.10744 88.5713 3.57237L84.3855 17.4357C83.9432 18.9006 82.3971 19.7296 80.9321 19.2873Z" fill="#1D2F31"/>
<path d="M68.1366 8.14586C67.6633 6.69064 68.4593 5.12727 69.9146 4.65399L83.6859 0.175091C85.1411 -0.298196 86.7045 0.497824 87.1778 1.95305C87.6511 3.40827 86.8551 4.97164 85.3998 5.44493L71.6285 9.92382C70.1733 10.3971 68.6099 9.60109 68.1366 8.14586Z" fill="#1D2F31"/>
<defs>
<linearGradient id="paint0_linear_0_1" x1="26.2703" y1="29.3619" x2="53.0581" y2="59.7706" gradientUnits="userSpaceOnUse">
<stop stop-color="#9AD0CF"/>
<stop offset="0.205" stop-color="#4EB5B0"/>
<stop offset="0.59" stop-color="#377877"/>
<stop offset="1" stop-color="#1E3034"/>
</linearGradient>
<linearGradient id="paint1_linear_0_1" x1="51.2627" y1="46.8651" x2="51.2627" y2="73.2486" gradientUnits="userSpaceOnUse">
<stop stop-color="#3D696A"/>
<stop offset="0.57" stop-color="#253938"/>
<stop offset="0.9999" stop-color="#1D2F31"/>
</linearGradient>
</defs>
</svg>
