<svg width="510" height="110" viewBox="0 0 510 110" fill="none" xmlns="http://www.w3.org/2000/svg">
    <path d="M187.328 109.72C184.469 109.72 183.04 108.056 183.04 104.728V101.016C183.04 99.352 183.061 97.9867 183.104 96.92C183.189 95.8533 183.296 94.9147 183.424 94.104C183.595 93.2933 183.829 92.4613 184.128 91.608C183.317 92.9307 182.208 93.912 180.8 94.552C179.392 95.192 177.557 95.512 175.296 95.512C172.779 95.512 170.517 95 168.512 93.976C166.549 92.952 165.013 91.3093 163.904 89.048C162.795 86.744 162.24 83.672 162.24 79.832C162.24 74.072 163.584 69.6987 166.272 66.712C169.003 63.7253 172.715 62.232 177.408 62.232C182.016 62.232 185.6 63.6827 188.16 66.584C190.72 69.4427 192 73.752 192 79.512V104.728C192 108.056 190.443 109.72 187.328 109.72ZM176.96 88.024C178.752 88.024 180.139 87.4053 181.12 86.168C182.144 84.888 182.656 82.4987 182.656 79C182.656 75.5013 182.144 73.1333 181.12 71.896C180.139 70.616 178.752 69.976 176.96 69.976C175.168 69.976 173.76 70.616 172.736 71.896C171.755 73.1333 171.264 75.5013 171.264 79C171.264 82.4987 171.755 84.888 172.736 86.168C173.76 87.4053 175.168 88.024 176.96 88.024ZM217.028 95.512C214.212 95.512 211.737 94.936 209.604 93.784C207.471 92.632 205.807 91.0107 204.612 88.92C203.46 86.8293 202.884 84.3973 202.884 81.624V66.648C202.884 63.7467 204.42 62.296 207.492 62.296C210.564 62.296 212.1 63.7467 212.1 66.648V81.496C212.1 83.5013 212.527 85.0587 213.38 86.168C214.233 87.2773 215.449 87.832 217.028 87.832C218.607 87.832 219.823 87.2773 220.676 86.168C221.529 85.0587 221.956 83.5013 221.956 81.496V66.648C221.956 63.7467 223.492 62.296 226.564 62.296C229.636 62.296 231.172 63.7467 231.172 66.648V81.624C231.172 84.3973 230.575 86.8293 229.38 88.92C228.228 91.0107 226.585 92.632 224.452 93.784C222.361 94.936 219.887 95.512 217.028 95.512ZM247.162 56.984C245.584 56.984 244.261 56.472 243.194 55.448C242.128 54.424 241.594 53.1653 241.594 51.672C241.594 50.0933 242.128 48.792 243.194 47.768C244.261 46.744 245.584 46.232 247.162 46.232C248.784 46.232 250.106 46.744 251.13 47.768C252.197 48.792 252.731 50.0933 252.731 51.672C252.731 53.1653 252.197 54.424 251.13 55.448C250.106 56.472 248.784 56.984 247.162 56.984ZM251.771 91.224C251.771 94.0827 250.277 95.512 247.29 95.512C245.84 95.512 244.688 95.1707 243.834 94.488C242.981 93.7627 242.554 92.6747 242.554 91.224V66.84C242.554 65.4747 242.896 64.408 243.578 63.64C244.304 62.872 245.498 62.488 247.162 62.488C248.826 62.488 250 62.872 250.682 63.64C251.408 64.408 251.771 65.4747 251.771 66.84V91.224ZM277.725 95.512C272.519 95.512 268.658 94.0187 266.141 91.032C263.623 88.0027 262.365 84.0133 262.365 79.064C262.365 74.1147 263.623 70.1253 266.141 67.096C268.658 64.024 272.519 62.488 277.725 62.488C281.01 62.488 283.399 62.8293 284.893 63.512C286.429 64.1947 287.197 65.4107 287.197 67.16C287.197 68.3973 286.855 69.2933 286.173 69.848C285.49 70.4027 284.573 70.68 283.421 70.68C282.61 70.68 281.97 70.616 281.501 70.488C281.031 70.36 280.519 70.2533 279.965 70.168C279.453 70.04 278.642 69.976 277.533 69.976C276.039 69.976 274.845 70.424 273.949 71.32C273.095 72.216 272.477 73.368 272.093 74.776C271.751 76.1413 271.581 77.5707 271.581 79.064C271.581 80.5147 271.709 81.944 271.965 83.352C272.263 84.7173 272.839 85.848 273.693 86.744C274.546 87.5973 275.847 88.024 277.597 88.024C279.218 88.024 280.413 87.9173 281.181 87.704C281.949 87.448 282.695 87.32 283.421 87.32C284.573 87.32 285.49 87.5333 286.173 87.96C286.855 88.344 287.197 89.1547 287.197 90.392C287.197 92.1413 286.429 93.4427 284.893 94.296C283.399 95.1067 281.01 95.512 277.725 95.512ZM302.618 95.512C300.954 95.512 299.759 95.064 299.034 94.168C298.351 93.272 298.01 92.056 298.01 90.52V51.224C298.01 49.688 298.351 48.472 299.034 47.576C299.759 46.68 300.954 46.232 302.618 46.232C304.282 46.232 305.455 46.68 306.138 47.576C306.863 48.472 307.226 49.688 307.226 51.224V75.032C309.487 73.6667 311.493 72.1307 313.242 70.424C314.991 68.6747 316.186 67.0107 316.826 65.432C317.423 63.9813 318.277 63 319.386 62.488C320.495 61.976 321.711 62.04 323.034 62.68C324.869 63.576 325.722 64.9413 325.594 66.776C325.551 68.312 324.847 70.04 323.482 71.96C322.159 73.8373 320.517 75.4587 318.554 76.824C321.029 77.6773 323.013 79.2347 324.506 81.496C326.042 83.7147 326.81 86.936 326.81 91.16C326.81 94.0613 325.295 95.512 322.266 95.512C319.151 95.512 317.594 94.0613 317.594 91.16C317.594 88.0453 317.103 85.7627 316.122 84.312C315.141 82.8613 313.839 82.136 312.218 82.136C310.725 82.136 309.509 82.6907 308.57 83.8C307.674 84.9093 307.226 86.8293 307.226 89.56C307.226 92.0347 306.863 93.656 306.138 94.424C305.413 95.1493 304.239 95.512 302.618 95.512ZM351.464 95.512C346.856 95.512 343.272 94.0827 340.712 91.224C338.152 88.3653 336.872 84.056 336.872 78.296V51.224C336.872 47.896 338.43 46.232 341.544 46.232C344.403 46.232 345.832 47.896 345.832 51.224V56.728C345.832 58.392 345.79 59.7573 345.704 60.824C345.662 61.8907 345.555 62.8293 345.384 63.64C345.256 64.408 345.043 65.24 344.744 66.136C345.555 64.8133 346.664 63.8747 348.072 63.32C349.523 62.7653 351.358 62.488 353.576 62.488C356.136 62.488 358.398 62.9787 360.36 63.96C362.323 64.8987 363.859 66.4987 364.968 68.76C366.078 71.0213 366.632 74.072 366.632 77.912C366.632 83.672 365.267 88.0453 362.536 91.032C359.848 94.0187 356.158 95.512 351.464 95.512ZM351.912 87.832C353.704 87.832 355.091 87.192 356.072 85.912C357.096 84.632 357.608 82.2427 357.608 78.744C357.608 76.3973 357.374 74.6267 356.904 73.432C356.478 72.1947 355.838 71.3413 354.984 70.872C354.131 70.4027 353.107 70.168 351.912 70.168C350.718 70.168 349.694 70.4027 348.84 70.872C347.987 71.3413 347.326 72.1947 346.856 73.432C346.43 74.6267 346.216 76.3973 346.216 78.744C346.216 82.2427 346.707 84.632 347.688 85.912C348.712 87.192 350.12 87.832 351.912 87.832ZM390.404 95.512C385.839 95.512 382.233 94.2107 379.588 91.608C376.943 89.0053 375.62 84.8027 375.62 79C375.62 73.1547 376.943 68.952 379.588 66.392C382.233 63.7893 385.839 62.488 390.404 62.488C394.969 62.488 398.575 63.7893 401.22 66.392C403.865 68.952 405.188 73.1547 405.188 79C405.188 84.8027 403.865 89.0053 401.22 91.608C398.575 94.2107 394.969 95.512 390.404 95.512ZM390.404 87.832C391.599 87.832 392.601 87.5973 393.412 87.128C394.223 86.616 394.841 85.72 395.268 84.44C395.737 83.16 395.972 81.3467 395.972 79C395.972 76.6533 395.737 74.84 395.268 73.56C394.841 72.28 394.223 71.4053 393.412 70.936C392.601 70.424 391.599 70.168 390.404 70.168C389.252 70.168 388.249 70.424 387.396 70.936C386.585 71.4053 385.945 72.28 385.476 73.56C385.049 74.84 384.836 76.6533 384.836 79C384.836 81.3467 385.049 83.16 385.476 84.44C385.945 85.72 386.585 86.616 387.396 87.128C388.249 87.5973 389.252 87.832 390.404 87.832ZM427.158 95.512C422.891 95.512 419.563 94.5307 417.174 92.568C414.784 90.5627 413.59 87.9813 413.59 84.824C413.59 81.112 415.147 78.424 418.262 76.76C421.419 75.096 426.027 74.52 432.086 75.032C431.787 73.0693 431.168 71.7467 430.23 71.064C429.291 70.3387 428.16 69.976 426.838 69.976C425.771 69.976 424.875 70.04 424.15 70.168C423.467 70.2533 422.827 70.36 422.23 70.488C421.632 70.616 420.907 70.68 420.054 70.68C418.902 70.68 417.984 70.488 417.302 70.104C416.619 69.6773 416.278 68.8453 416.278 67.608C416.278 65.8587 417.024 64.5787 418.518 63.768C420.054 62.9147 422.464 62.488 425.75 62.488C430.955 62.488 434.816 63.9813 437.334 66.968C439.851 69.912 441.11 73.8587 441.11 78.808C441.11 84.5253 440.064 88.7493 437.974 91.48C435.926 94.168 432.32 95.512 427.158 95.512ZM422.806 84.824C422.806 87.256 424.448 88.472 427.734 88.472C428.8 88.472 429.632 88.28 430.23 87.896C430.827 87.512 431.254 86.744 431.51 85.592C431.808 84.44 432.022 82.712 432.15 80.408C431.936 80.6213 431.659 80.7707 431.318 80.856C430.976 80.9413 430.635 80.984 430.294 80.984C427.478 80.984 425.515 81.2613 424.406 81.816C423.339 82.328 422.806 83.3307 422.806 84.824ZM456.352 95.512C453.28 95.512 451.744 94.0613 451.744 91.16V66.904C451.744 63.96 453.28 62.488 456.352 62.488C457.888 62.488 458.997 62.8293 459.68 63.512C460.363 64.152 460.704 65.2187 460.704 66.712C461.472 65.304 462.56 64.2587 463.968 63.576C465.419 62.8507 467.104 62.488 469.024 62.488C472.693 62.488 474.528 64.088 474.528 67.288C474.528 68.4827 474.08 69.3787 473.184 69.976C472.288 70.5733 470.816 70.872 468.768 70.872C466.763 70.872 465.184 71.064 464.032 71.448C462.88 71.7893 462.069 72.4507 461.6 73.432C461.173 74.3707 460.96 75.736 460.96 77.528V91.16C460.96 94.0613 459.424 95.512 456.352 95.512ZM494.541 95.512C489.847 95.512 486.135 94.0187 483.405 91.032C480.717 88.0453 479.373 83.672 479.373 77.912C479.373 74.072 479.927 71.0213 481.037 68.76C482.146 66.4987 483.682 64.8987 485.645 63.96C487.65 62.9787 489.911 62.488 492.429 62.488C494.69 62.488 496.525 62.7653 497.933 63.32C499.341 63.8747 500.45 64.8133 501.261 66.136C500.962 65.24 500.727 64.408 500.557 63.64C500.429 62.8293 500.322 61.8907 500.237 60.824C500.194 59.7573 500.173 58.392 500.173 56.728V51.224C500.173 47.896 501.602 46.232 504.461 46.232C507.575 46.232 509.133 47.896 509.133 51.224V78.296C509.133 84.056 507.853 88.3653 505.293 91.224C502.733 94.0827 499.149 95.512 494.541 95.512ZM494.093 87.832C495.885 87.832 497.271 87.192 498.253 85.912C499.277 84.632 499.789 82.2427 499.789 78.744C499.789 76.3973 499.554 74.6267 499.085 73.432C498.658 72.1947 498.018 71.3413 497.165 70.872C496.311 70.4027 495.287 70.168 494.093 70.168C492.898 70.168 491.874 70.4027 491.021 70.872C490.167 71.3413 489.506 72.1947 489.037 73.432C488.61 74.6267 488.397 76.3973 488.397 78.744C488.397 82.2427 488.887 84.632 489.869 85.912C490.893 87.192 492.301 87.832 494.093 87.832Z" fill="#F8F9FD"/>
    <path d="M36 36C36 52.8247 69.5 70 69.5 70C69.5 70 103 52.8247 103 36" stroke="#F8F9FD" stroke-width="71" stroke-linecap="round"/>
    <path d="M49.0918 52.2855L66.2961 69.3241C66.6773 69.7017 67.2887 69.7111 67.6813 69.3453L103.176 36.2816" stroke="#E59B34" stroke-width="11" stroke-linecap="round" stroke-linejoin="round"/>
</svg>

